<svg id="Capa_1" enable-background="new 0 0 512 512" height="512" viewBox="0 0 512 512" width="512" xmlns="http://www.w3.org/2000/svg"><g><circle cx="252.255" cy="384.539" r="7.5"/><circle cx="252.255" cy="411.034" r="7.5"/><path d="m488.422 236.634c.735-4.032 1.117-8.134 1.117-12.272 0-18.277-7.14-35.398-20.102-48.264 13.036-21.556 20.617-42.904 24.884-58.405 1.558-5.662-.455-11.618-5.129-15.173-4.675-3.555-10.95-3.907-15.992-.893-2.935 1.754-6.346 4.245-10.038 7.126 4.813-15.061 7.52-28.907 9.038-39.822.81-5.817-1.961-11.46-7.058-14.378-5.098-2.917-11.368-2.449-15.973 1.194-8.501 6.724-18.862 15.894-29.236 27.394.316-4.516.51-8.607.535-11.698.046-5.873-3.436-11.108-8.868-13.338-5.43-2.229-11.588-.95-15.682 3.261-14.125 14.531-33.585 38.313-46.49 69.316-10.187-5.824-21.637-8.878-33.616-8.878-10.819 0-21.451 2.6-30.98 7.469v-72.037c0-17.964-14.614-32.578-32.578-32.578s-32.578 14.614-32.578 32.578v87.11c-1.473.135-2.939.303-4.4.486-.248-.528-.553-1.037-.934-1.512-12.992-16.216-32.349-25.516-53.105-25.516-18.268 0-35.637 7.381-48.311 20.152-.167-.58-.323-1.165-.449-1.759-.549-2.598-1.326-5.178-2.311-7.667-8.375-21.188-31.465-33.48-53.717-28.587-12.92 2.84-23.732 10.646-30.443 21.982-6.618 11.178-8.318 24.736-4.665 37.195.365 1.247.785 2.487 1.246 3.683 1.947 5.056 2.047 10.868.28 16.365-3.789 11.793-3.944 24.329-.448 36.253.003.01.034.115.037.126l.093.31c1.616 5.366 1.321 11.276-.832 16.641-.706 1.758-1.299 3.568-1.789 5.403-11.689 4.871-19.928 16.415-19.928 29.851v187.259c0 17.828 14.504 32.332 32.331 32.332h68.388c4.142 0 7.5-3.358 7.5-7.5s-3.358-7.5-7.5-7.5h-68.388c-9.557 0-17.331-7.775-17.331-17.332v-15.02h48.404c4.143 0 7.5-3.358 7.5-7.5s-3.357-7.5-7.5-7.5h-48.404v-30.133h96.689c4.143 0 7.5-3.358 7.5-7.5s-3.357-7.5-7.5-7.5h-96.689v-30.133h48.404c4.143 0 7.5-3.358 7.5-7.5s-3.357-7.5-7.5-7.5h-48.404v-30.133h158.958v24.138c0 23.31 11.256 45.437 30.109 59.191.303.221.62.407.942.577v83.844h-74.291c-4.143 0-7.5 3.358-7.5 7.5s3.357 7.5 7.5 7.5h348.95c17.827 0 32.331-14.504 32.331-32.332v-187.258c.001-14.794-9.99-27.29-23.577-31.118zm8.578 31.118v21.84h-158.958v-.306c0-21.431 17.436-38.866 38.866-38.866h102.761c9.557 0 17.331 7.775 17.331 17.332zm-212.167-48.316c6.545 4.781 12.437 10.352 17.608 16.644l-17.608 39.508zm24.322 1.578c-6.954-7.41-14.853-13.828-23.616-19.127-.231-.14-.467-.264-.706-.376v-30.566c13.091 6.412 25.078 15.271 35.08 25.937-.012.027-.026.053-.039.08zm-17.155 113.711h-7.167v-22.289l48.732-109.345c4.688-10.422 13.608-18.424 24.476-21.955 10.865-3.531 22.788-2.301 32.707 3.378 17.851 10.219 25.069 32.347 17.283 50.906h-31.123c-29.702 0-53.866 24.164-53.866 53.866v39.444c0 18.749-8.821 35.921-23.542 46.792v-33.297c0-4.142-3.357-7.5-7.5-7.5zm182.539-110.362c0 3.74-.397 7.44-1.164 11.058h-49.468c.826-2.827 1.414-5.692 1.774-8.57 12.182-10.274 22.901-21.444 31.855-33.214 1.18-1.551 2.324-3.11 3.44-4.673 8.765 9.738 13.563 22.179 13.563 35.399zm-20.198-89.193c2.663-2.121 5.432-4.386 8.109-6.578 6.107-4.997 12.399-10.146 16.918-13.126-4.427 15.535-14.397 43.622-33.77 69.088-6.09 8.004-13.087 15.72-20.862 23.047-1.553-6.882-4.393-13.462-8.405-19.34 11.617-12.408 21.451-25.586 29.272-39.251 2.414-4.216 4.616-8.449 6.639-12.668.739-.269 1.449-.655 2.099-1.172zm2.751-66.555c-2.361 15.965-8.59 45.139-24.506 72.943-7.056 12.326-15.913 24.254-26.367 35.546-2.468-2.069-5.136-3.958-8.019-5.608-2.854-1.633-5.834-2.982-8.891-4.074 4.445-14.735 10.243-28.425 17.292-40.738 15.915-27.8 37.919-47.946 50.491-58.069zm-51.654 4.49c-.212 8.015-1.392 21.614-2.777 31.793-3.15 4.546-6.201 9.312-9.076 14.335-7.809 13.641-14.177 28.802-18.995 45.091-7.01-.508-14.122.296-20.939 2.475 2.379-10.382 5.484-20.298 9.286-29.562 12.159-29.624 31.349-52.456 42.501-64.132zm-89.624 63.698c10.179 0 19.866 2.824 28.319 8.194-2.9 8.882-5.267 18.173-7.046 27.782-.166.899-.156 1.788-.009 2.639-3.266 2.471-6.252 5.296-8.904 8.426-12.386-12.469-27.238-22.551-43.34-29.378v-7.657c8.978-6.467 19.848-10.006 30.98-10.006zm-96.137 49.405c-34.17 2.534-65.203 20.612-84.316 49.219-.09-.001-.179-.007-.27-.007h-15.247c16.318-41.779 55.084-71.398 99.832-75.998v26.786zm-58.44-53.405c14.066 0 27.304 5.486 37.18 15.225-21.663 5.583-41.468 16.459-57.736 31.316-3.553-11.226-10.145-21.088-19.148-28.64 10.01-11.297 24.454-17.901 39.704-17.901zm-122.323-3.238c4.569-7.718 11.941-13.036 20.757-14.974 15.131-3.327 30.849 5.034 36.547 19.451.676 1.708 1.208 3.475 1.582 5.25 1.87 8.864 6.704 16.852 13.612 22.492 7.323 5.978 12.606 13.952 15.272 23.045l.1.344c.601 2.107 1.394 4.148 2.334 6.122-10.96 12.784-19.618 27.682-25.233 44.124h-4.474l-15.275-52.087c-1.165-3.974-5.33-6.251-9.308-5.086-3.975 1.165-6.252 5.332-5.087 9.307l3.911 13.338-5.599-.89c-4.095-.646-7.934 2.14-8.584 6.23-.65 4.091 2.14 7.934 6.231 8.585l12.624 2.006 5.454 18.597h-47.186c2.515-7.787 2.646-16.171.311-23.927l-.088-.295c-2.648-9.031-2.532-18.521.335-27.444 2.811-8.747 2.61-18.104-.564-26.347-.313-.813-.6-1.658-.849-2.51-2.526-8.609-1.397-17.605 3.177-25.331zm-23.914 160.027v-21.84c0-9.557 7.774-17.332 17.331-17.332h102.761c21.431 0 38.866 17.436 38.866 38.866v.306zm173.958 39.138v-39.444c0-23.831-15.561-44.083-37.051-51.164 16.465-21.19 40.955-34.573 67.77-36.873v47.932c0 4.142 3.357 7.5 7.5 7.5s7.5-3.358 7.5-7.5v-191.945c0-9.692 7.886-17.578 17.578-17.578s17.578 7.886 17.578 17.578v85.866.02 167.56.038 24.005h-35.156v-55.544c0-4.142-3.357-7.5-7.5-7.5s-7.5 3.358-7.5 7.5v55.544h-7.167c-4.143 0-7.5 3.358-7.5 7.5v26.628c-10.185-10.74-16.052-25.123-16.052-40.123zm31.052 20.995h64.49v122.617h-64.49zm259.659 122.618h-180.169v-79.115c23.824-12.812 38.542-37.336 38.542-64.497v-24.138h158.958v30.133h-53.895c-4.143 0-7.5 3.358-7.5 7.5s3.357 7.5 7.5 7.5h53.895v30.133h-102.18c-4.143 0-7.5 3.358-7.5 7.5s3.357 7.5 7.5 7.5h102.18v30.133h-53.895c-4.143 0-7.5 3.358-7.5 7.5s3.357 7.5 7.5 7.5h53.895v15.02c0 9.556-7.774 17.331-17.331 17.331z"/></g></svg>