<svg width="251" height="257" viewBox="0 0 251 257" fill="none" xmlns="http://www.w3.org/2000/svg">
<path d="M21.5697 176.415C18.2931 155.69 23.4712 112.308 70.3967 104.576C117.322 96.8447 132.706 73.4354 134.532 62.6972C132.437 65.9187 129.505 69.5912 134.532 58.5093C140.817 44.657 127.764 17.4357 156.932 6.32165C180.265 -2.56959 215.857 -0.174968 230.736 2.13375C243.52 11.1539 263.384 36.7323 240.566 66.8852C212.043 104.576 156.932 110.214 156.932 125.516C156.932 140.818 177.88 201.381 152.742 209.113C127.603 216.844 111.327 204.925 96.8244 217.489C77.3259 217.489 116.484 253.247 61.3725 256.629C6.2609 260.012 -5.50269 239.717 2.07113 217.489C8.13018 199.706 17.5948 182.697 21.5697 176.415Z" fill="#F6C23C" fill-opacity="0.3"/>
</svg>
