<svg width="252" height="260" viewBox="0 0 252 260" fill="none" xmlns="http://www.w3.org/2000/svg">
<path d="M22.0038 179.281C18.7271 158.556 23.9053 115.174 70.8307 107.443C117.756 99.711 125 88.2486 129 79C133 69.7514 133.5 71.5 134.966 61.3756C137.147 46.3214 128.198 20.302 157.366 9.18791C180.699 0.296679 220.434 -2.57494 231.17 5.00002C243.954 14.0201 263.818 39.5985 241 69.7514C212.477 107.443 157.366 101.366 157.366 128.382C157.366 143.684 178.314 204.247 153.176 211.979C128.037 219.71 110.242 204 95.5 220.355C79.5 233 116.918 256.113 61.8066 259.495C6.69497 262.878 -5.06863 242.583 2.50519 220.355C8.56424 202.572 22.0038 192 22.0038 179.281Z" fill="#F6C23C" fill-opacity="0.3"/>
</svg>
