<svg width="380" height="412" viewBox="0 0 380 412" fill="none" xmlns="http://www.w3.org/2000/svg">
<path d="M253.195 137.029C272.82 36.6369 191.761 -9.17188 151.594 15.1079C111.426 39.3876 120.504 70.9107 127.652 85.9353C134.8 100.96 155.551 138.016 123.706 156.364C91.8607 174.711 51.3368 157.817 29.2809 171.205C7.22505 184.593 -2.21099 230.784 39.575 225.149C73.0039 220.64 69.6395 254.434 63.7788 271.895C55.4233 302.193 21.77 281.506 12.6721 325.057C5.39369 359.898 39.8357 373.299 57.9665 375.644C72.9716 378.321 107.562 373.219 125.885 331.4C144.207 289.581 186.417 325.042 205.232 348C206.943 364.998 222.04 400.447 268.74 406.254C315.439 412.061 345.355 375.411 354.475 356.361C379.592 288.334 341.312 256.296 319.032 248.781C288.909 253.361 233.57 237.422 253.195 137.029Z" fill="#F6C23C" fill-opacity="0.3"/>
</svg>
