<svg width="166" height="148" viewBox="0 0 166 148" fill="none" xmlns="http://www.w3.org/2000/svg">
<path d="M55.3464 0.969186C29.7615 6.08158 34.6735 26.8862 40.3276 36.6495C44.6861 42.6504 44.0383 48.898 44.0383 60.9689C44.0383 73.0398 44.0381 73.0398 14.0007 73.0398C-16.0367 73.0398 11.1736 104.46 14.0007 116.708C16.8277 128.957 40.3276 127.359 51.1059 104.46C59.7285 86.1404 77.9041 96.8267 85.9141 104.46C103.76 104.46 87.3276 135.347 100.756 145.288C114.185 155.229 150.583 136.057 135.741 116.708C120.899 97.3592 162.775 85.9983 165.602 73.0398C168.429 60.0813 156.237 28.8389 127.79 40.9098C105.032 50.5666 104.172 31.6791 106.587 21.0282C100.167 12.2117 80.9313 -4.14321 55.3464 0.969186Z" fill="#FDEDC5"/>
</svg>
