<svg width="165" height="149" viewBox="0 0 165 149" fill="none" xmlns="http://www.w3.org/2000/svg">
<path d="M54.3466 1.96929C28.7617 7.08169 33.6737 27.8863 39.3278 37.6496C43.6862 43.6504 45.0002 53.5003 43.0385 61.969C41.0767 70.4377 36 74.04 13.0009 74.04C-9.99829 74.04 3.96549 109.657 13.0009 117.708C19.5002 123.5 39.3278 128.359 50.1061 105.46C58.7287 87.1405 80.2067 98.0001 86.0002 103C104.586 119.04 86.3278 136.347 99.7564 146.288C113.185 156.229 149.583 137.057 134.741 117.708C119.899 98.3594 161.775 86.9985 164.602 74.04C167.429 61.0815 155.237 29.839 126.79 41.9099C104.032 51.5667 99.7564 37.6496 105.587 22.0284C109.5 7 79.9315 -3.14311 54.3466 1.96929Z" fill="#FDEDC5"/>
</svg>
