<svg width="381" height="412" viewBox="0 0 381 412" fill="none" xmlns="http://www.w3.org/2000/svg">
<path d="M253.195 137.03C272.82 36.637 191.761 -9.1718 151.594 15.1079C111.427 39.3877 120.504 70.9108 127.652 85.9354C134.8 100.96 155.552 138.016 123.706 156.364C91.861 174.711 51.337 157.817 29.2811 171.205C7.22521 184.593 -2.21087 230.784 39.5752 225.149C73.004 220.64 69.6397 254.434 63.7789 271.895C55.4235 302.193 21.7701 281.506 12.6722 325.057C5.39388 359.898 39.8358 373.299 57.9666 375.644C72.9718 378.321 107.563 373.219 125.885 331.4C144.207 289.581 186.417 325.042 205.232 348C217.935 363.5 222.04 400.447 268.74 406.254C315.44 412.061 345.355 375.411 354.476 356.361C379.592 288.334 354.473 261.5 319.032 248.781C282.247 235.579 233.57 237.422 253.195 137.03Z" fill="#F6C23C" fill-opacity="0.3"/>
</svg>
